<mxfile host="65bd71144e">
    <diagram id="e9XNvLnr2rqToNuJSbBQ" name="Page-1">
        <mxGraphModel dx="576" dy="475" grid="1" gridSize="10" guides="1" tooltips="1" connect="1" arrows="1" fold="1" page="1" pageScale="1" pageWidth="850" pageHeight="1100" math="0" shadow="0">
            <root>
                <mxCell id="0"/>
                <mxCell id="1" parent="0"/>
                <mxCell id="2" value="Persona" style="shape=umlActor;verticalLabelPosition=bottom;verticalAlign=top;html=1;fillColor=#ffe6cc;strokeColor=#d79b00;" parent="1" vertex="1">
                    <mxGeometry x="80" y="304" width="30" height="60" as="geometry"/>
                </mxCell>
                <mxCell id="3" value="Chofer" style="shape=umlActor;verticalLabelPosition=bottom;verticalAlign=top;html=1;fillColor=#ffe6cc;strokeColor=#d79b00;" parent="1" vertex="1">
                    <mxGeometry x="240" y="174" width="30" height="60" as="geometry"/>
                </mxCell>
                <mxCell id="4" value="Administrador" style="shape=umlActor;verticalLabelPosition=bottom;verticalAlign=top;html=1;fillColor=#ffe6cc;strokeColor=#d79b00;" parent="1" vertex="1">
                    <mxGeometry x="240" y="434" width="30" height="60" as="geometry"/>
                </mxCell>
                <mxCell id="7" value="" style="endArrow=block;endSize=16;endFill=0;html=1;exitX=0.5;exitY=0.5;exitDx=0;exitDy=0;exitPerimeter=0;fillColor=#ffe6cc;strokeColor=#d79b00;" edge="1" parent="1" source="3" target="2">
                    <mxGeometry width="160" relative="1" as="geometry">
                        <mxPoint x="350" y="274" as="sourcePoint"/>
                        <mxPoint x="160" y="324" as="targetPoint"/>
                    </mxGeometry>
                </mxCell>
                <mxCell id="8" value="" style="endArrow=block;endSize=16;endFill=0;html=1;exitX=0.5;exitY=0.5;exitDx=0;exitDy=0;exitPerimeter=0;fillColor=#ffe6cc;strokeColor=#d79b00;" edge="1" parent="1" source="4" target="2">
                    <mxGeometry width="160" relative="1" as="geometry">
                        <mxPoint x="285" y="214" as="sourcePoint"/>
                        <mxPoint x="160" y="354" as="targetPoint"/>
                    </mxGeometry>
                </mxCell>
                <mxCell id="9" value="Sistema" style="shape=umlActor;verticalLabelPosition=bottom;verticalAlign=top;html=1;fillColor=#ffe6cc;strokeColor=#d79b00;" vertex="1" parent="1">
                    <mxGeometry x="730" y="304" width="30" height="60" as="geometry"/>
                </mxCell>
                <mxCell id="10" value="ingresar codigo de huella" style="ellipse;whiteSpace=wrap;html=1;fillColor=#ffe6cc;strokeColor=#d79b00;" vertex="1" parent="1">
                    <mxGeometry x="390" y="70" width="140" height="70" as="geometry"/>
                </mxCell>
                <mxCell id="11" value="logearse al sistema" style="ellipse;whiteSpace=wrap;html=1;fillColor=#ffe6cc;strokeColor=#d79b00;" vertex="1" parent="1">
                    <mxGeometry x="390" y="434" width="140" height="70" as="geometry"/>
                </mxCell>
                <mxCell id="12" value="mostrar el panel de control" style="ellipse;whiteSpace=wrap;html=1;fillColor=#ffe6cc;strokeColor=#d79b00;" vertex="1" parent="1">
                    <mxGeometry x="390" y="510" width="140" height="70" as="geometry"/>
                </mxCell>
                <mxCell id="14" value="modificar datos de choferes" style="ellipse;whiteSpace=wrap;html=1;fillColor=#ffe6cc;strokeColor=#d79b00;" vertex="1" parent="1">
                    <mxGeometry x="390" y="590" width="140" height="70" as="geometry"/>
                </mxCell>
                <mxCell id="15" value="mostrar datos puntuales del chofer" style="ellipse;whiteSpace=wrap;html=1;fillColor=#ffe6cc;strokeColor=#d79b00;" vertex="1" parent="1">
                    <mxGeometry x="390" y="150" width="140" height="70" as="geometry"/>
                </mxCell>
                <mxCell id="16" value="ingresar estado de ebriedad" style="ellipse;whiteSpace=wrap;html=1;fillColor=#ffe6cc;strokeColor=#d79b00;" vertex="1" parent="1">
                    <mxGeometry x="390" y="234" width="140" height="70" as="geometry"/>
                </mxCell>
                <mxCell id="17" value="validar aprobacion de salida del chofer" style="ellipse;whiteSpace=wrap;html=1;fillColor=#ffe6cc;strokeColor=#d79b00;" vertex="1" parent="1">
                    <mxGeometry x="400" y="340" width="140" height="70" as="geometry"/>
                </mxCell>
                <mxCell id="18" value="" style="endArrow=open;endFill=1;endSize=12;html=1;fillColor=#ffe6cc;strokeColor=#d79b00;" edge="1" parent="1" source="17" target="16">
                    <mxGeometry width="160" relative="1" as="geometry">
                        <mxPoint x="440" y="260" as="sourcePoint"/>
                        <mxPoint x="600" y="260" as="targetPoint"/>
                    </mxGeometry>
                </mxCell>
                <mxCell id="19" value="" style="endArrow=open;endFill=1;endSize=12;html=1;fillColor=#ffe6cc;strokeColor=#d79b00;" edge="1" parent="1" source="9" target="17">
                    <mxGeometry width="160" relative="1" as="geometry">
                        <mxPoint x="629.7426890917418" y="231.81190951376198" as="sourcePoint"/>
                        <mxPoint x="530.2648569749999" y="261.1944740755682" as="targetPoint"/>
                    </mxGeometry>
                </mxCell>
                <mxCell id="20" value="" style="endArrow=open;endFill=1;endSize=12;html=1;entryX=1;entryY=0.5;entryDx=0;entryDy=0;fillColor=#ffe6cc;strokeColor=#d79b00;" edge="1" parent="1" source="9" target="10">
                    <mxGeometry width="160" relative="1" as="geometry">
                        <mxPoint x="630" y="300" as="sourcePoint"/>
                        <mxPoint x="530.2648569749999" y="261.1944740755682" as="targetPoint"/>
                    </mxGeometry>
                </mxCell>
                <mxCell id="21" value="" style="endArrow=open;endFill=1;endSize=12;html=1;entryX=1;entryY=0.5;entryDx=0;entryDy=0;fillColor=#ffe6cc;strokeColor=#d79b00;" edge="1" parent="1" source="9" target="15">
                    <mxGeometry width="160" relative="1" as="geometry">
                        <mxPoint x="655" y="344" as="sourcePoint"/>
                        <mxPoint x="540" y="115" as="targetPoint"/>
                    </mxGeometry>
                </mxCell>
                <mxCell id="22" value="" style="endArrow=open;endFill=1;endSize=12;html=1;fillColor=#ffe6cc;strokeColor=#d79b00;" edge="1" parent="1" source="9" target="11">
                    <mxGeometry width="160" relative="1" as="geometry">
                        <mxPoint x="630" y="340" as="sourcePoint"/>
                        <mxPoint x="540" y="195" as="targetPoint"/>
                    </mxGeometry>
                </mxCell>
                <mxCell id="23" value="" style="endArrow=open;endFill=1;endSize=12;html=1;entryX=1;entryY=0.5;entryDx=0;entryDy=0;fillColor=#ffe6cc;strokeColor=#d79b00;" edge="1" parent="1" source="9" target="12">
                    <mxGeometry width="160" relative="1" as="geometry">
                        <mxPoint x="640" y="350" as="sourcePoint"/>
                        <mxPoint x="539.610881246007" y="355.3147180516819" as="targetPoint"/>
                    </mxGeometry>
                </mxCell>
                <mxCell id="24" value="" style="endArrow=open;endFill=1;endSize=12;html=1;entryX=1;entryY=0.5;entryDx=0;entryDy=0;fillColor=#ffe6cc;strokeColor=#d79b00;" edge="1" parent="1" source="9" target="14">
                    <mxGeometry width="160" relative="1" as="geometry">
                        <mxPoint x="640" y="356.3913043478261" as="sourcePoint"/>
                        <mxPoint x="540" y="439" as="targetPoint"/>
                    </mxGeometry>
                </mxCell>
                <mxCell id="25" value="" style="endArrow=open;endFill=1;endSize=12;html=1;entryX=0;entryY=0.5;entryDx=0;entryDy=0;exitX=0.5;exitY=0.5;exitDx=0;exitDy=0;exitPerimeter=0;fillColor=#ffe6cc;strokeColor=#d79b00;" edge="1" parent="1" source="3" target="10">
                    <mxGeometry width="160" relative="1" as="geometry">
                        <mxPoint x="410" y="275" as="sourcePoint"/>
                        <mxPoint x="310" y="80" as="targetPoint"/>
                    </mxGeometry>
                </mxCell>
                <mxCell id="26" value="" style="endArrow=open;endFill=1;endSize=12;html=1;fillColor=#ffe6cc;strokeColor=#d79b00;" edge="1" parent="1" source="3" target="15">
                    <mxGeometry width="160" relative="1" as="geometry">
                        <mxPoint x="285" y="214" as="sourcePoint"/>
                        <mxPoint x="400" y="115" as="targetPoint"/>
                    </mxGeometry>
                </mxCell>
                <mxCell id="27" value="" style="endArrow=open;endFill=1;endSize=12;html=1;fillColor=#ffe6cc;strokeColor=#d79b00;" edge="1" parent="1" source="3" target="16">
                    <mxGeometry width="160" relative="1" as="geometry">
                        <mxPoint x="300" y="212.45945945945948" as="sourcePoint"/>
                        <mxPoint x="401.4315548597117" y="202.0421646360296" as="targetPoint"/>
                    </mxGeometry>
                </mxCell>
                <mxCell id="28" value="" style="endArrow=open;endFill=1;endSize=12;html=1;entryX=0;entryY=0.5;entryDx=0;entryDy=0;fillColor=#ffe6cc;strokeColor=#d79b00;" edge="1" parent="1" source="4" target="11">
                    <mxGeometry width="160" relative="1" as="geometry">
                        <mxPoint x="280" y="469" as="sourcePoint"/>
                        <mxPoint x="412.7265812197563" y="258.8769069150495" as="targetPoint"/>
                    </mxGeometry>
                </mxCell>
                <mxCell id="29" value="" style="endArrow=open;endFill=1;endSize=12;html=1;fillColor=#ffe6cc;strokeColor=#d79b00;" edge="1" parent="1" source="4" target="12">
                    <mxGeometry width="160" relative="1" as="geometry">
                        <mxPoint x="300" y="459" as="sourcePoint"/>
                        <mxPoint x="400" y="359" as="targetPoint"/>
                    </mxGeometry>
                </mxCell>
                <mxCell id="30" value="" style="endArrow=open;endFill=1;endSize=12;html=1;entryX=0;entryY=0.5;entryDx=0;entryDy=0;fillColor=#ffe6cc;strokeColor=#d79b00;" edge="1" parent="1" source="4" target="14">
                    <mxGeometry width="160" relative="1" as="geometry">
                        <mxPoint x="300" y="464" as="sourcePoint"/>
                        <mxPoint x="402.8444148900119" y="448.8758213397041" as="targetPoint"/>
                    </mxGeometry>
                </mxCell>
                <mxCell id="33" value="DCU: GestionChoferes" style="shape=umlFrame;whiteSpace=wrap;html=1;width=140;height=30;boundedLbl=1;verticalAlign=middle;align=left;spacingLeft=5;fillColor=#ffe6cc;strokeColor=#d79b00;" vertex="1" parent="1">
                    <mxGeometry x="300" y="30" width="340" height="640" as="geometry"/>
                </mxCell>
            </root>
        </mxGraphModel>
    </diagram>
</mxfile>